<svg width="32" height="32" viewBox="0 0 32 32" fill="none" xmlns="http://www.w3.org/2000/svg">
<path fill-rule="evenodd" clip-rule="evenodd" d="M14.3263 26.1181C14.3263 26.9903 15.0746 27.6974 15.9977 27.6974L24.3547 27.6974C28.5746 27.6974 31.9954 24.4651 31.9954 20.4779L31.9954 17.9617C31.9954 13.9745 28.5746 10.7422 24.3547 10.7422L5.66849 10.7422L9.65703 6.92251C10.3054 6.30164 10.2982 5.30173 9.64114 4.68915C8.98405 4.07657 7.9258 4.08329 7.27748 4.70416L0.481631 11.2123C-0.160538 11.8272 -0.160538 12.8156 0.481631 13.4306L7.27748 19.9387C7.9258 20.5596 8.98405 20.5663 9.64114 19.9537C10.2982 19.3411 10.3054 18.3412 9.65703 17.7204L5.66849 13.9007L24.3547 13.9007C26.7284 13.9007 28.6526 15.7189 28.6526 17.9617L28.6526 20.4779C28.6526 22.7207 26.7284 24.5389 24.3547 24.5389L15.9977 24.5389C15.0746 24.5389 14.3263 25.2459 14.3263 26.1181Z" fill="#FF9FCD"/>
</svg>
