<svg width="19" height="18" viewBox="0 0 19 18" fill="none" xmlns="http://www.w3.org/2000/svg">
<path fill-rule="evenodd" clip-rule="evenodd" d="M13.5546 2.33683L4.54946 11.4027L6.95279 13.4067L16.0978 4.81079C16.795 4.12722 16.7933 3.0233 16.0927 2.34178C15.3921 1.66026 14.2573 1.65861 13.5546 2.33683ZM5.36744 14.4942L2.84275 15.231L3.53991 12.9704L5.36744 14.4942ZM12.2197 1.0482C13.6564 -0.349399 15.9857 -0.349403 17.4225 1.0482C18.8592 2.4458 18.8592 4.71177 17.4225 6.10937C17.4206 6.11121 17.4187 6.11305 17.4167 6.11488C17.4148 6.11672 17.4129 6.11855 17.411 6.12037L7.13101 15.783C7.02303 15.8845 6.89164 15.9594 6.74782 16.0014L1.71051 17.4714C1.37918 17.5681 1.02003 17.48 0.77543 17.2421C0.530829 17.0041 0.44028 16.6548 0.53968 16.3324L2.05087 11.4323C2.09402 11.2924 2.17098 11.1645 2.27531 11.0595L12.2083 1.0594C12.2121 1.05564 12.2159 1.0519 12.2197 1.0482ZM8.55971 17.0853C8.55971 16.5801 8.9807 16.1706 9.50001 16.1706H17.5597C18.079 16.1706 18.5 16.5801 18.5 17.0853C18.5 17.5905 18.079 18 17.5597 18H9.50001C8.9807 18 8.55971 17.5905 8.55971 17.0853Z" fill="#CCCCCC"/>
</svg>
