<svg width="12" height="10" viewBox="0 0 12 10" fill="none" xmlns="http://www.w3.org/2000/svg">
	<path fill-rule="evenodd" clip-rule="evenodd" d="M11.0981 1.09001C11.4982 1.47812 11.5 2.10913 11.1022 2.49943L4.57248 8.90621C4.38075 9.09433 4.12006 9.2001 3.84815 9.2001C3.57624 9.2001 3.31555 9.09433 3.12383 8.90621L0.898029 6.72231C0.500244 6.33202 0.502068 5.701 0.902102 5.3129C1.30214 4.9248 1.9489 4.92658 2.34668 5.31687L3.84815 6.79008L9.65354 1.09399C10.0513 0.703692 10.6981 0.701913 11.0981 1.09001Z" fill="#FF9FCD" />
	<path fill-rule="evenodd" clip-rule="evenodd" d="M11.1022 2.49943C11.5 2.10913 11.4982 1.47812 11.0981 1.09001C10.6981 0.701913 10.0513 0.703692 9.65354 1.09399L3.84815 6.79008L2.34668 5.31687C1.9489 4.92658 1.30214 4.9248 0.902102 5.3129C0.502068 5.701 0.500244 6.33202 0.898029 6.72231L3.12383 8.90621C3.31555 9.09433 3.57624 9.2001 3.84815 9.2001C4.12006 9.2001 4.38075 9.09433 4.57248 8.90621L11.1022 2.49943Z" fill="#FF9FCD" />
</svg>
