<svg width="16" height="16" viewBox="0 0 16 16" fill="none" xmlns="http://www.w3.org/2000/svg">
<path fill-rule="evenodd" clip-rule="evenodd" d="M8 0C8.46161 0 8.83582 0.37421 8.83582 0.835821V9.60376L11.895 6.62958C12.226 6.3078 12.7551 6.31525 13.0769 6.64622C13.3987 6.9772 13.3912 7.50636 13.0602 7.82814L8.58263 12.1814C8.25823 12.4968 7.74177 12.4968 7.41737 12.1814L2.93975 7.82814C2.60878 7.50636 2.60133 6.9772 2.92311 6.64622C3.24489 6.31525 3.77405 6.3078 4.10502 6.62958L7.16418 9.60376L7.16418 0.835821C7.16418 0.37421 7.53839 0 8 0ZM0 15.1642C0 14.7026 0.37421 14.3284 0.835821 14.3284H15.1642C15.6258 14.3284 16 14.7026 16 15.1642C16 15.6258 15.6258 16 15.1642 16H0.835821C0.37421 16 0 15.6258 0 15.1642Z" fill="black"/>
</svg>
