<svg width="24" height="24" viewBox="0 0 24 24" fill="none" xmlns="http://www.w3.org/2000/svg">
<rect x="1" y="1" width="22" height="22" rx="11" stroke="#FF0000" stroke-width="2"/>
<path fill-rule="evenodd" clip-rule="evenodd" d="M8.90664 7.49281C8.51622 7.1024 7.88323 7.1024 7.49281 7.49281C7.1024 7.88323 7.1024 8.51622 7.49281 8.90664L10.5862 12L7.49281 15.0934C7.1024 15.4838 7.1024 16.1168 7.49281 16.5072C7.88323 16.8976 8.51622 16.8976 8.90664 16.5072L12 13.4138L15.0934 16.5072C15.4838 16.8976 16.1168 16.8976 16.5072 16.5072C16.8976 16.1168 16.8976 15.4838 16.5072 15.0934L13.4138 12L16.5072 8.90664C16.8976 8.51622 16.8976 7.88323 16.5072 7.49281C16.1168 7.1024 15.4838 7.1024 15.0934 7.49281L12 10.5862L8.90664 7.49281Z" fill="#FF0000"/>
</svg>
