<svg width="197" height="51" viewBox="0 0 197 51" fill="none" xmlns="http://www.w3.org/2000/svg">
<path d="M182.685 41.2667C182.467 39.5175 182.174 37.775 181.824 36.048C181.708 35.4789 181.361 34.9337 181.028 34.4385C180.509 33.6667 179.833 33.1274 178.826 33.0269C177.542 32.9004 176.273 32.6252 174.989 32.4773C169.967 31.898 164.927 31.7264 159.876 31.9061C155.736 32.0521 151.597 32.1827 147.458 32.3057C144.053 32.4065 140.645 32.466 137.24 32.5784C131.895 32.753 126.554 33.0488 121.208 33.1239C115.471 33.2056 109.73 33.1096 103.991 33.0526C98.9003 33.0023 93.811 32.9015 88.7211 32.8198C86.4783 32.7849 84.2328 32.6503 81.9937 32.7257C77.0788 32.8923 72.169 33.1807 67.2552 33.3878C60.0171 33.6929 52.7764 33.9692 45.5372 34.259C45.4945 34.2603 45.4504 34.263 45.4077 34.2671C37.7547 35.0375 30.0628 34.6831 22.3955 35.0399C21.1958 35.0954 19.9794 35.2156 18.8146 35.4897C17.2491 35.8595 15.9563 36.7578 15.1922 38.2081C13.589 41.2524 14.1671 44.9782 16.6144 47.4319C17.3409 48.1596 18.1617 48.7943 19.2541 48.9613C21.5953 49.3209 23.9194 49.7912 26.2673 50.0834C30.5216 50.6125 34.8034 50.6549 39.0512 50.1107C43.8112 49.502 48.5867 49.2227 53.3735 49.1776C60.4912 49.1114 67.609 49.1673 74.7284 49.1608C76.3235 49.1598 77.92 49.1211 79.5168 49.1016C85.815 49.0251 103.156 48.9167 105.526 48.883C108.331 48.8413 111.137 48.9308 113.94 48.843C120.926 48.6221 127.908 48.3207 134.894 48.0752C142.135 47.8206 149.383 47.8414 156.61 47.1159C159.692 46.8056 162.815 46.918 165.919 46.8237C169.934 46.7023 173.934 46.3895 177.86 45.4961C178.859 45.2685 179.836 44.8871 180.775 44.466C182.125 43.861 182.873 42.7789 182.684 41.2675L182.685 41.2667ZM26.8545 45.4399C26.7745 45.6026 26.5651 45.7967 26.4059 45.8019C26.2467 45.807 25.9779 45.6262 25.9367 45.4759C25.8346 45.1112 25.814 44.7187 25.7985 44.3357C25.7482 43.1087 25.6485 41.3043 25.6085 40.0762C25.6085 40.0762 24.9338 41.9574 24.7164 42.6902C24.6297 42.9784 24.5652 43.4544 24.3866 43.6742C24.1926 43.9132 23.8786 44.1637 23.5979 44.1859C23.3884 44.2027 23.0305 43.908 22.9478 43.678C22.7344 43.0771 22.6287 42.4356 22.4929 41.8076C22.4141 41.4395 22.3582 41.0656 22.0625 40.648C21.8182 41.4949 21.6574 42.3248 21.4337 43.1768C21.2591 43.8412 21.0722 44.5433 20.8576 45.1934C20.7852 45.4118 20.6022 45.8021 20.2293 45.7116C19.6627 45.664 19.7431 45.1196 19.8013 44.9033C20.2772 43.1233 20.8212 41.3627 21.3565 39.5994C21.4171 39.3964 21.4721 39.1091 21.5897 38.932C21.8483 38.5427 22.1682 38.0716 22.7074 38.3016C22.9985 38.4254 23.2012 38.9558 23.2816 39.3369C23.4459 40.1298 23.5001 40.9437 23.8477 41.7855C24.0366 41.0048 24.2187 40.2228 24.4179 39.4442C24.5355 38.9882 24.6222 38.5095 24.834 38.0986C24.9476 37.8775 25.3032 37.6488 25.5384 37.6601C25.7684 37.6704 26.1691 37.9832 26.2444 38.211C26.4704 38.9025 26.613 39.5762 26.6775 40.2976C26.8094 41.7957 26.8493 43.303 26.9194 44.8066C26.9297 45.0188 26.9416 45.2601 26.8549 45.4399H26.8545ZM33.1526 44.5365C33.1372 44.936 33.0271 45.4029 32.5116 45.2761C32.3011 45.2242 32.0991 44.7898 32.0499 44.5033C31.9734 44.0507 32.0294 43.5774 32.0294 43.0141C30.9695 43.3268 30.0307 43.4844 29.7011 44.5952C29.5968 44.9455 29.28 45.2274 28.9102 44.9866C28.7458 44.8782 28.6323 44.4397 28.715 44.2435C29.4016 42.6172 30.1345 41.0102 30.8673 39.4034C31.0276 39.0531 31.2074 38.6925 31.4579 38.4054C31.6326 38.2051 31.9648 37.9905 32.1859 38.028C32.3941 38.0629 32.6682 38.3978 32.7079 38.6357C33.0401 40.5866 33.2291 42.554 33.1526 44.5373V44.5365ZM44.4511 38.114C43.8748 38.397 43.2606 38.6038 42.5483 38.8855C42.5483 40.2325 42.5678 41.4814 42.5391 42.7302C42.5261 43.2433 42.4615 43.7696 42.3166 44.2581C42.2504 44.4819 41.9428 44.7711 41.7282 44.7865C41.2859 44.8163 41.211 44.4105 41.214 44.051C41.2151 43.8404 41.2954 43.632 41.32 43.4204C41.4 42.7416 41.47 42.0631 41.5746 41.0972C41.1586 41.4427 40.9348 41.5911 40.7574 41.7822C39.9676 42.6343 39.2245 43.5339 38.4008 44.3524C37.1571 45.587 35.9317 44.7982 35.6703 43.5636C35.3446 42.0239 35.4054 40.4715 36.0996 39.009C36.208 38.7814 36.3696 38.5554 36.5624 38.4003C36.9232 38.1081 37.4055 38.3008 37.3987 38.7557C37.3936 39.1696 37.3495 39.6762 37.1127 39.9773C36.1355 41.2197 36.6459 42.458 36.853 43.9861C38.8644 42.8419 39.8197 41.1135 41.0921 39.4859C40.7404 39.3929 40.2814 39.3115 40.1176 39.1826C39.943 39.0455 39.8178 38.8404 39.9073 38.629C39.9514 38.5249 40.2379 38.3522 40.419 38.294C41.4816 37.9556 42.5534 37.6464 43.6226 37.3285C43.7866 37.2793 43.9669 37.2249 44.1162 37.2057C44.3913 37.1695 44.6068 37.0903 44.8479 37.5328C44.9825 37.851 44.6344 38.024 44.4511 38.1132V38.114ZM48.5415 41.2786C47.9236 41.4584 47.2978 41.6098 46.5479 41.8074C46.4874 42.5064 46.4252 43.2125 46.3398 44.191C47.0599 43.8848 47.5873 43.6763 48.0993 43.436C48.424 43.2836 48.8037 43.0676 48.9513 43.5293C49.0238 43.758 48.8286 44.2181 48.6129 44.3643C48.1204 44.6963 47.5592 44.9612 46.9918 45.1439C46.0222 45.4567 45.3202 44.999 45.332 43.9802C45.345 42.8673 45.5478 41.7565 45.6489 40.6423C45.707 40.0089 45.6653 39.3588 45.7948 38.7436C45.8594 38.4308 46.1671 37.9861 46.4295 37.9329C47.1289 37.7948 47.8633 37.8361 48.5848 37.8091C48.9516 37.7961 49.3101 37.8491 49.3593 38.2965C49.4112 38.7828 49.0516 38.8122 48.6818 38.8512C48.1309 38.9106 47.5841 39.0166 46.9753 39.1126C46.8977 39.6062 46.828 40.0508 46.7361 40.6301C47.3684 40.4944 47.8593 40.3922 48.3483 40.2825C48.7581 40.1906 49.3009 39.9373 49.4236 40.5382C49.536 41.0851 48.9443 41.1616 48.5418 41.2792L48.5415 41.2786ZM54.9343 39.947C54.5959 40.3233 54.1701 40.6542 53.7254 40.8975C53.1502 41.2113 52.9591 41.6536 52.9796 42.2666C52.9991 42.8251 53.0104 43.3858 52.9704 43.9418C52.9458 44.274 52.8593 44.6203 52.7107 44.9166C52.6463 45.0485 52.3579 45.1312 52.1771 45.1209C52.0605 45.1144 51.8786 44.9074 51.8616 44.7744C51.8227 44.4381 51.8911 44.0894 51.8627 43.7504C51.8021 43.0108 51.7086 42.2739 51.6013 41.2827C52.426 40.3774 51.5848 38.9958 51.9051 37.752C52.0032 37.3679 52.4039 37.3485 52.6031 37.4028C53.261 37.585 53.7484 37.7453 54.2839 37.885C55.3455 38.1591 55.6736 39.1236 54.934 39.947H54.9343ZM65.8844 44.4933C65.6619 44.5538 65.4018 44.4662 65.2583 44.3865C64.9004 44.1848 64.6339 43.8212 64.3252 43.5306C63.8389 43.073 63.3493 42.6205 62.673 41.9909C62.4573 42.8778 62.3343 43.4206 62.1907 43.9599C62.0948 44.3205 61.9134 44.563 61.4784 44.476C61.2103 44.4219 61.1165 43.9897 61.1473 43.7596C61.2495 42.9943 61.4511 42.242 61.605 41.483C61.6387 41.3203 61.6325 41.1481 61.6644 40.7188C61.2546 41.2127 61.0235 41.5579 60.7286 41.8358C60.1068 42.4226 59.5157 43.0795 58.7972 43.5177C57.8754 44.0799 56.9279 43.572 56.8025 42.508C56.6227 40.9761 56.8982 39.5037 57.6299 38.1345C57.7475 37.9148 57.9273 37.6991 58.1316 37.5604C58.5401 37.2852 59.0583 37.4942 59.1115 37.9818C59.1686 38.5154 59.2913 39.122 58.5568 39.3845C58.3809 39.4478 58.1611 39.6083 58.1122 39.7697C57.8343 40.6693 57.6716 41.5835 58.0295 42.717C58.4933 42.3861 58.9499 42.1961 59.2034 41.8547C60.0176 40.7545 60.7507 39.5935 61.5303 38.4678C61.8288 38.0375 61.8493 37.2087 62.5657 37.3263C63.3685 37.4582 62.7168 38.3305 62.986 38.9961C63.3428 38.6417 63.7694 38.2454 64.1065 37.9818C64.3949 37.7556 64.7309 37.5474 65.0775 37.4596C65.2299 37.4217 65.5273 37.4028 65.6373 37.8561C65.6746 38.0094 65.5054 38.2427 65.3581 38.3384C64.3303 39.0028 63.6505 39.9714 62.9617 40.7753C64.0048 41.7617 64.9461 42.6229 65.8454 43.5263C65.9644 43.6439 66.0682 43.8391 66.1014 44.0434C66.122 44.1662 66.0044 44.4597 65.8844 44.4933ZM71.8435 43.016C71.8408 43.4285 71.7854 43.8577 71.2426 43.8031C70.7666 43.7553 70.652 43.3339 70.652 42.9305C70.652 42.4329 70.7101 41.9339 70.745 41.3976C69.6086 41.4284 68.846 41.7155 68.6416 42.8403C68.5743 43.2125 68.4037 43.5874 68.1959 43.9069C68.1183 44.0245 67.9904 44.1113 67.8015 44.1489C67.6658 44.1762 67.3968 44.1602 67.2857 44.0388C67.1549 43.8967 67.1616 43.7477 67.1692 43.5461C67.1732 43.4469 67.2598 43.2579 67.3371 43.1673C67.7804 42.6451 67.7701 42.0828 67.549 41.696C67.9455 40.954 68.2834 40.3798 68.5665 39.7789C68.9876 38.8828 69.3523 37.961 69.7805 37.0679C69.9254 36.7643 70.1513 36.4772 70.4019 36.2523C70.9539 35.7557 71.4905 35.9458 71.5794 36.6865C71.6765 37.4988 71.6841 38.3205 71.74 39.1391C71.7541 39.3456 71.806 39.5499 71.8419 39.7738C72.3204 39.8319 72.7575 39.8278 73.1503 39.9573C73.3249 40.0157 73.4692 40.3295 73.5082 40.5493C73.5236 40.6361 73.2273 40.848 73.0492 40.8842C72.7183 40.9529 72.3693 40.9345 71.8444 40.9618C71.8444 41.7376 71.8471 42.3775 71.8433 43.016H71.8435ZM78.4031 43.3071C78.4147 43.5136 78.4355 43.7647 78.3358 43.9223C78.2141 44.1148 77.9727 44.3424 77.7787 44.3476C77.5913 44.3527 77.3043 44.1302 77.2256 43.9402C77.0847 43.5966 77.0653 43.2022 76.975 42.72C76.4306 43.0057 75.9575 43.2655 75.4728 43.5047C75.1109 43.6845 74.9014 43.9094 74.7981 44.3486C74.6868 44.822 74.0356 44.9863 73.6401 44.7238C73.177 44.4173 73.2108 43.9402 73.503 43.6044C73.8301 43.2282 74.2888 42.9578 74.717 42.6816C75.3139 42.2934 75.9348 41.9433 76.7996 41.4235C76.2295 40.931 75.9281 40.6388 75.5948 40.3906C75.0868 40.0143 74.6667 39.5891 74.7751 38.9014C74.903 38.0962 75.4618 37.6061 76.1792 37.3593C76.7544 37.163 77.4564 37.2687 77.7224 36.5021C77.7481 36.4272 78.1106 36.3613 78.166 36.4245C78.3133 36.5924 78.4723 36.837 78.462 37.0438C78.4039 38.1983 78.2423 39.3502 78.2231 40.5042C78.2074 41.4373 78.3458 42.3723 78.4039 43.3071H78.4031ZM89.9097 44.0194C89.717 44.8082 89.4059 45.577 89.0553 46.3103C88.9807 46.4679 88.7233 46.6928 88.4984 46.7793C88.36 46.8326 88.0575 46.7031 88.024 46.5596C87.9737 46.3463 88.081 46.0557 88.1286 45.8421C88.2113 45.474 88.3757 45.1158 88.4995 44.7771C88.7025 43.5558 88.0343 43.7688 87.4898 43.8285C87.0517 43.9086 86.514 44.0083 85.8285 44.1362V47.1364C85.0854 47.3784 84.8718 47.0161 84.8075 46.5534C84.7491 46.1292 84.8256 45.6886 84.7675 45.2645C84.695 44.7463 84.3925 44.2562 84.2633 43.6912C84.858 41.9847 85.6401 40.1582 86.2696 38.3508C86.4675 37.7818 86.6019 37.1795 86.8824 36.6546C87.0103 36.4126 87.1295 36.2174 87.3866 36.0393C87.5947 35.8958 87.8997 35.9993 87.9891 36.0855C88.2151 36.308 88.2632 36.6191 88.3019 36.8908C88.4738 38.0816 88.5576 39.285 88.6587 40.486C88.7055 41.0407 88.7168 41.5989 88.7476 42.2301C89.9719 42.6513 90.1787 42.9178 89.9097 44.0194ZM100.598 38.2394C99.662 38.5327 98.9122 39.2542 98.3512 40.0168C97.8341 40.7199 97.8614 40.9618 98.5115 41.5527C99.1633 42.1461 99.9248 42.6994 100.591 43.2682C100.717 43.3755 100.732 43.5685 100.622 43.6923C100.183 44.1927 99.858 44.1821 99.3011 43.7258C98.8057 43.3201 97.6465 42.371 97.5803 42.1372C97.5638 42.4629 97.553 43.2128 97.5311 43.5371C97.4987 44.0283 97.2881 44.4019 96.7442 44.327C96.236 44.2573 96.2138 43.8499 96.293 43.4285C96.4198 42.7562 96.535 42.0828 96.5682 41.3562C95.6413 42.3442 94.2192 42.5367 93.3801 43.669C92.8089 44.4419 91.8495 44.137 91.6673 43.1633C91.3622 41.5373 91.4711 39.8862 91.9466 38.3078C92.2775 37.2082 93.193 37.0619 94.0537 37.8234C94.9342 38.6 95.2107 39.5943 95.0982 40.8831C96.1192 40.1025 96.5331 39.1496 96.7826 38.1024C96.851 37.8102 96.8612 37.5052 96.8988 37.2065C96.9456 36.8435 97.0616 36.4348 97.4884 36.5524C97.7095 36.6145 97.9085 37.0268 97.9731 37.3125C98.0558 37.6785 97.9936 38.0778 97.9936 38.7268C98.4964 38.2589 98.8378 37.9061 99.2168 37.5985C99.7961 37.1303 100.313 37.1717 100.745 37.8158C100.849 37.9721 100.777 38.184 100.597 38.24L100.598 38.2394ZM105.277 38.4838C105.119 39.1988 104.925 39.9043 104.765 40.6193C104.549 41.5838 104.36 42.5548 104.14 43.5177C104.053 43.9004 103.775 44.1729 103.394 44.0091C103.188 43.9199 102.911 43.4674 102.977 43.3447C103.747 41.9033 102.971 40.7488 102.375 39.5378C102.191 39.1604 102.095 38.7168 102.058 38.294C102.041 38.0875 101.994 37.7731 102.202 37.5845C102.274 37.5212 102.492 37.5161 102.57 37.5704C103.362 38.1327 102.997 39.1666 103.756 39.7654C103.898 39.2431 104.03 38.7739 104.153 38.3032C104.261 37.8842 104.348 37.3582 104.905 37.4425C105.52 37.5355 105.369 38.0667 105.276 38.4846L105.277 38.4838ZM111.543 44.4508C111.044 44.3048 110.946 43.855 110.976 43.4052C111.028 42.68 111.121 41.956 110.999 41.1143C110.77 41.427 110.588 41.7917 110.302 42.035C110.034 42.2637 109.613 42.5364 109.34 42.4691C109.066 42.4007 108.826 41.9612 108.692 41.6354C108.571 41.334 108.611 40.9659 108.551 40.3155C108.042 41.3597 107.678 42.1526 107.27 42.923C107.085 43.2706 106.964 43.9069 106.409 43.6431C105.785 43.3471 106.22 42.8494 106.398 42.4321C106.852 41.363 107.277 40.2798 107.75 39.2183C107.994 38.6714 108.262 38.1167 108.624 37.6474C108.788 37.4342 109.122 37.3193 109.405 37.3463C109.827 37.3863 109.834 37.8153 109.866 38.0818C109.91 38.4608 109.745 40.2525 109.807 40.701C110.206 40.4682 110.884 38.6611 111.33 37.8583C111.511 37.5339 111.631 37.2314 112.176 37.3655C112.205 37.372 112.233 37.385 112.256 37.402C112.582 37.6334 112.542 37.8945 112.532 38.1286C112.476 39.4186 112.353 40.7077 112.216 41.9925C112.142 42.6829 112.04 43.3549 112.691 43.7972C112.473 44.4411 112.056 44.6003 111.543 44.4514V44.4508ZM117.628 37.7961C117.567 37.9707 117.152 38.1373 116.918 38.1127C116.264 38.0443 115.677 37.981 115.582 38.8587C115.574 38.9363 115.622 39.0201 115.677 39.2296C116.079 39.1937 116.423 39.1172 116.756 39.1496C116.923 39.1664 117.172 39.3604 117.2 39.5091C117.23 39.6616 117.072 39.9641 116.931 40.0149C116.45 40.1865 115.94 40.276 115.38 40.4114V42.4013C115.906 42.3961 116.033 41.9382 116.268 41.6254C116.48 41.3424 116.73 40.9726 117.075 41.2921C117.242 41.4484 117.275 41.9771 117.139 42.1904C116.798 42.7259 116.382 43.2452 115.893 43.6461C115.177 44.2343 114.443 43.9264 114.298 43.0084C114.219 42.5029 114.303 41.9731 114.256 41.46C114.225 41.1164 114.236 40.7866 114.225 40.5109C114.217 40.269 114.236 40.0276 114.281 39.7894C114.401 39.1653 114.455 38.6 114.512 38.038C114.565 37.518 114.759 37.1847 115.243 37.1384C115.836 37.08 116.442 37.0968 117.037 37.1487C117.381 37.1795 117.783 37.3568 117.628 37.7964V37.7961ZM123.305 43.1571C123.056 43.479 122.911 43.705 122.705 43.8266C122.01 44.2324 121.42 43.8991 121.358 43.0795C121.329 42.6981 121.403 42.3077 121.434 41.9212C121.47 41.4624 121.512 41.0048 121.574 40.2844C120.677 41.0818 119.672 41.4116 119.702 42.6502C119.706 42.8392 119.355 43.1763 119.141 43.2009C118.666 43.2552 118.625 42.8351 118.654 42.4807C118.785 40.9359 118.931 39.3923 119.074 37.8475C119.083 37.7621 119.112 37.5125 119.144 37.4479C119.209 37.3174 119.343 37.2179 119.603 37.2111C119.746 37.2074 119.895 37.2214 119.987 37.3314C120.084 37.4469 120.113 37.5836 120.117 37.7258C120.131 38.1951 120.03 38.6671 119.993 39.1391C119.973 39.3913 119.989 39.647 119.989 40.1306C121 39.404 121.376 38.5341 121.841 37.7207C122.078 37.3047 122.193 36.5548 122.865 36.7835C123.637 37.046 123.184 37.7196 123.103 38.2327C122.934 39.2966 122.729 40.3552 122.583 41.4208C122.506 41.9898 122.308 42.6437 123.202 42.8494C123.339 42.8803 123.393 43.0473 123.306 43.1571H123.305ZM127.306 38.7279C127.285 39.5372 127.256 40.3404 127.243 41.144C127.234 41.6171 127.256 42.089 127.253 42.5624C127.252 42.9527 127.265 43.4206 126.721 43.4025C126.219 43.3858 126.156 42.9241 126.156 42.5361C126.155 41.6779 126.2 40.8194 126.219 39.9597C126.228 39.5808 126.22 39.2023 126.22 38.6944C125.787 38.7344 125.41 38.8458 125.074 38.773C124.851 38.7252 124.598 38.6503 124.535 38.2473C124.506 38.0648 124.717 37.771 124.991 37.7247C125.536 37.6328 126.096 37.6112 126.65 37.5553C127.5 37.4685 128.348 37.3471 129.2 37.3047C129.411 37.2944 129.766 37.246 129.901 37.5109C129.936 37.5793 129.947 37.6761 129.942 37.7523C129.913 38.2073 129.642 38.2154 129.448 38.2767C128.802 38.4781 128.121 38.566 127.306 38.7276V38.7279ZM134.783 40.742C133.688 41.43 133.856 42.5183 133.849 43.5655C133.848 43.8475 133.776 44.1745 133.618 44.3967C133.496 44.5673 133.159 44.7184 132.973 44.6695C132.804 44.6244 132.602 44.2973 132.603 44.0953C132.606 43.5396 132.718 42.9862 132.763 42.4288C132.778 42.2223 132.816 41.9739 132.778 41.6519C131.851 41.8887 131.196 42.2001 130.771 43.047C130.733 43.1217 130.686 43.1971 130.636 43.2665C130.422 43.5669 129.989 43.8439 129.666 43.5439C129.467 43.359 129.372 42.8976 129.551 42.677C130.805 41.1394 131.193 39.1883 132.323 37.6266C132.517 37.3577 132.931 37.0798 133.229 37.0941C133.692 37.1146 133.721 37.6031 133.722 38.0026C133.723 38.6438 133.722 39.285 133.722 39.8873C134.11 40.0825 134.403 40.2298 134.668 40.3633C134.739 40.3982 134.827 40.4847 134.834 40.5647C134.842 40.6658 134.81 40.725 134.783 40.7418L134.783 40.742ZM138.608 43.6107C138.482 43.7296 138.287 43.7364 138.157 43.6239C138.019 43.5063 137.889 43.3858 137.858 43.2449C137.767 42.8324 137.818 42.3877 137.817 41.9574C137.813 41.1105 137.815 40.2628 137.815 39.4159C137.815 39.2177 137.547 39.1599 137.465 39.3394C137.09 40.163 136.719 40.9899 136.34 41.8136C136.215 42.0877 136.109 42.3826 135.924 42.6126C135.814 42.7483 135.544 42.8608 135.407 42.8311C135.091 42.7613 135.055 42.3683 135.118 42.2234C135.863 40.482 136.633 38.7498 137.454 37.0433C137.567 36.8065 138.044 36.548 138.26 36.6129C138.491 36.6813 138.747 37.1146 138.759 37.3977C138.839 39.3369 138.873 41.277 138.873 43.2176C138.873 43.3482 138.743 43.4801 138.608 43.6107ZM145.506 38.7176C145.282 39.6367 145.01 40.5458 144.821 41.4727C144.732 41.9098 144.733 42.3813 144.787 42.8265C144.84 43.2595 144.698 43.5671 144.304 43.5517C144.034 43.5415 143.591 43.2893 143.547 43.0787C143.456 42.6364 143.531 42.1415 143.619 41.6838C143.747 41.0178 143.974 40.1606 144.155 39.2872C143.701 39.9697 143.001 40.9742 142.525 41.6398C142.217 42.0701 141.999 42.7813 141.296 42.5307C140.67 42.3058 140.876 41.6425 140.927 41.1591C141.064 39.8768 141.262 38.6022 141.438 37.3236C141.449 37.2384 141.465 37.14 141.495 37.0765C141.565 36.9254 141.647 36.8243 141.852 36.7832C141.987 36.7559 142.09 36.7524 142.206 36.827C142.436 36.9743 142.474 37.1519 142.462 37.3041C142.402 38.1289 142.233 39.4578 142.117 40.2784C142.207 40.2274 143.108 38.6333 143.509 38.0426C143.774 37.6523 144.043 37.2466 144.391 36.9373C144.614 36.737 144.974 36.5348 145.257 36.6283C145.71 36.7781 145.67 37.2414 145.702 37.5826C145.736 37.9524 145.598 38.344 145.506 38.719L145.506 38.7176ZM156.328 37.0295C155.884 37.1755 155.416 37.2452 154.939 37.3501C154.748 38.5162 154.576 39.637 154.374 40.7529C154.287 41.231 154.177 41.7055 154.026 42.1682C153.914 42.5137 153.734 42.8508 153.26 42.6905C152.825 42.5432 152.9 42.1785 152.996 41.823C153.118 41.3722 153.211 40.9145 153.382 40.1698C152.813 40.6753 152.48 41.0394 152.085 41.3111C151.236 41.8928 150.405 42.538 149.476 42.953C148.363 43.4485 147.353 42.807 147.234 41.5971C147.08 40.0149 147.393 38.5046 148.269 37.1487C148.406 36.9381 148.599 36.7375 148.811 36.6081C149.245 36.3434 149.759 36.59 149.727 37.0917C149.703 37.4923 149.586 38.0483 149.305 38.2462C148.111 39.0853 148.265 40.1749 148.353 41.4573C148.375 41.7922 148.714 42.012 149.027 41.8928C151.05 41.1235 152.309 39.8062 153.279 37.9345C152.808 37.9761 152.506 38.0675 152.238 38.007C152.03 37.9602 151.771 37.8929 151.715 37.5647C151.678 37.3533 151.924 37.0814 152.103 37.0284C153.173 36.7116 154.258 36.444 155.344 36.1815C155.632 36.1118 155.955 36.0431 156.232 36.1077C156.423 36.1518 156.664 36.2821 156.697 36.6043C156.715 36.7859 156.49 36.9765 156.327 37.0295H156.328ZM162.217 37.7377C161.829 39.3226 161.426 40.9048 161.075 42.4988C160.977 42.9487 160.799 43.2928 160.349 43.1557C160.13 43.0884 159.891 42.6502 159.898 42.388C159.912 41.8801 160.093 41.3784 160.209 40.8745C160.359 40.2101 160.626 39.3129 160.69 38.4722C160.286 38.979 159.622 39.7511 159.232 40.2709C158.87 40.7531 158.582 41.2973 158.176 41.7368C157.946 41.9863 157.543 42.2177 157.222 42.2126C156.743 42.2047 156.651 41.7214 156.696 41.327C156.856 39.9178 157.032 38.5098 157.26 37.1114C157.285 36.9603 157.422 36.7597 157.645 36.7119C157.769 36.6846 157.887 36.6862 158 36.7416C158.311 36.8941 158.246 37.1955 158.224 37.3882C158.125 38.23 157.903 39.4218 157.734 40.2555C157.879 40.1546 157.948 40.0668 158.03 39.956C158.709 39.1282 159.367 38.2857 160.073 37.4839C160.44 37.0662 160.859 36.6775 161.315 36.3659C161.516 36.2288 161.949 36.2066 162.131 36.3375C162.316 36.468 162.371 36.8465 162.395 37.1244C162.41 37.3225 162.269 37.5304 162.218 37.7385L162.217 37.7377ZM168.518 36.3767C167.18 36.5859 166.697 37.8102 165.59 38.4654C166.083 38.8352 166.385 39.0601 166.686 39.288C167.98 40.2628 168.216 41.7233 168.436 43.1776C168.457 43.3198 168.255 43.5901 168.105 43.6377C167.942 43.6896 167.603 43.6069 167.542 43.4825C167.357 43.1087 167.207 42.6954 167.158 42.2839C167.025 41.1748 166.468 40.4044 165.369 39.7254C165.328 40.4558 165.33 40.9924 165.259 41.5187C165.207 41.9066 165.07 42.2888 164.55 42.2037C164.204 42.1469 164.123 41.6682 164.141 41.3981C164.243 39.8108 164.411 38.2273 164.565 36.6435C164.581 36.4729 164.586 36.1615 164.679 36.032C164.816 35.842 164.953 35.7074 165.212 35.6909C165.481 35.6733 165.647 35.7839 165.738 35.9961C165.83 36.2083 165.831 36.4899 165.9 36.8259C166.475 36.3386 166.916 35.9366 167.388 35.5733C167.621 35.3935 167.903 35.1867 168.17 35.1748C168.403 35.1646 168.754 35.3559 168.862 35.559C169.033 35.8782 168.947 36.3102 168.518 36.3759V36.3767ZM175.855 37.695C175.63 39.6202 175.423 41.5395 175.806 43.4685C175.883 43.855 175.782 44.1705 175.355 44.2494C174.89 44.3362 174.707 43.9715 174.701 43.6342C174.672 42.0869 174.687 40.9618 174.697 39.4145C174.7 39.1263 174.73 38.6195 174.612 38.1483C174.286 38.5684 173.849 39.2791 173.577 39.7329C172.918 40.8383 172.307 41.5 171.677 42.6232C171.471 42.9914 171.359 43.4777 170.695 43.3939C170.578 43.3795 170.486 43.2979 170.453 43.1871C170.374 42.9154 170.423 42.6248 170.45 42.335C170.635 40.4087 170.843 38.4838 171.056 36.5591C171.085 36.3069 171.134 36.0266 171.27 35.8222C171.438 35.5676 171.727 35.1824 171.928 35.2043C172.386 35.2532 172.282 35.6979 172.217 36.0353C172.114 36.5832 171.97 37.1265 171.89 37.6785C171.789 38.3776 171.685 39.4637 171.609 40.1657C171.696 40.0425 171.773 39.9416 171.842 39.8632C172.641 38.8614 173.417 37.8388 174.252 36.8678C174.596 36.4672 175.006 35.8612 175.628 36.1699C176.279 36.4945 175.915 37.1784 175.855 37.6956L175.855 37.695Z" fill="#000217"/>
<path d="M93.4515 41.6841C92.4845 40.8656 92.8416 39.6062 93.09 38.6782C94.1773 39.411 94.3343 40.4212 93.4515 41.6841Z" fill="#000217"/>
<path d="M87.4828 38.4865L87.5131 42.6989C87.0271 42.8021 86.5035 42.9122 85.7485 43.0727C86.285 41.5949 87.3766 38.4533 87.4828 38.4868V38.4865Z" fill="#000217"/>
<path d="M70.7125 40.126C70.3219 40.2347 69.9886 40.3276 69.4391 40.4804C69.7815 39.6659 70.4284 37.9529 70.5074 37.9591C70.5668 38.47 70.6401 39.5097 70.7125 40.126Z" fill="#000217"/>
<path d="M77.2096 40.1573C76.6179 39.7448 76.2297 39.4748 75.5615 39.0107C76.1638 38.6346 76.5157 38.4138 77.1156 38.0386C77.1504 38.8325 77.1737 39.3496 77.2096 40.1573Z" fill="#000217"/>
<path d="M31.9545 41.7938C31.6236 41.9217 31.3017 42.0471 30.6851 42.285C31.0625 41.4603 31.761 39.9135 31.8461 39.8097C31.8769 40.2298 31.9169 41.2727 31.9545 41.7938Z" fill="#000217"/>
<path d="M54.4342 39.0674C53.8938 39.4553 53.3719 39.7643 53.005 40.0279C52.4887 38.3527 53.1561 38.4216 54.4342 39.0674Z" fill="#000217"/>
<path d="M132.99 40.4444C132.599 40.5528 132.258 40.6755 131.709 40.8285C132.051 40.0152 132.865 38.5933 132.946 38.5933C132.94 39.1196 132.917 39.8276 132.99 40.4444Z" fill="#000217"/>
<path d="M167.901 12.9547C167.255 11.6335 166 10.6571 164.54 10.7979C164.238 10.8267 163.935 10.8525 163.589 10.8834C163.589 10.5669 163.605 10.3134 163.586 10.0622C163.548 9.55433 163.261 9.19897 162.829 9.09082C162.435 8.99293 162.044 9.16156 161.775 9.57769C161.634 9.79394 161.531 10.035 161.417 10.2668C161.014 11.0801 160.623 11.9 160.21 12.7079C158.412 16.2409 155.991 19.3618 153.675 22.5509C153.648 22.5874 153.591 22.6 153.439 22.6838C153.469 22.4294 153.478 22.2498 153.512 22.0748C154.052 19.2783 154.134 16.4591 153.916 13.6285C153.853 12.7972 153.654 11.9853 153.195 11.269C152.576 10.3001 150.652 10.2067 149.713 10.8522C149.627 10.9106 149.543 10.9734 149.467 11.0428C149.268 11.2231 149.102 11.3141 148.783 11.2045C148.191 10.9999 147.781 11.2333 147.548 11.8118C147.452 12.0491 147.407 12.3097 147.362 12.5638C147.068 14.2475 146.76 15.9296 146.493 17.6188C146.245 19.1882 146.165 20.7676 146.446 22.3449C146.662 23.5534 147.014 24.7191 147.684 25.7604C148.522 27.0638 150.839 27.3313 152.208 26.5955C152.682 26.3404 153.135 26.0146 153.528 25.6452C154.035 25.1669 154.527 24.6529 154.928 24.0851C156.847 21.3771 158.734 18.6459 160.633 15.9224C160.699 15.8284 160.771 15.7381 160.856 15.6261C160.921 15.7288 160.97 15.7693 160.968 15.8074C160.899 16.9988 160.826 18.1895 160.753 19.3809C159.715 20.5066 160.612 21.0618 160.611 21.3481C160.605 23.2147 160.555 25.2462 160.504 27.1136C160.499 27.3134 160.488 27.557 160.376 27.7013C159.783 28.4761 160.189 29.1884 160.501 29.8869C160.672 30.271 161.05 30.4248 161.482 30.3621C161.886 30.3037 162.134 30.0461 162.24 29.6714C162.309 29.4249 162.34 29.1619 162.348 28.9048C162.409 26.9604 162.456 25.0157 162.517 23.0713C162.535 22.4547 162.581 21.8387 162.613 21.2297C164.602 20.6161 166.3 19.9437 167.536 18.3581C168.895 16.6161 168.805 14.8032 167.901 12.9549L167.901 12.9547ZM151.581 21.8564C151.453 22.4335 150.144 23.7918 149.496 24.2611C149.341 23.894 149.202 23.674 149.155 23.4353C149.017 22.7246 148.837 22.0083 148.813 21.2897C148.761 19.7344 148.791 18.1759 148.801 16.6189C148.804 16.3638 148.834 16.0909 148.929 15.8584C149.275 15.02 149.932 12.9806 151.646 12.4552C151.838 12.5674 151.975 13.5728 152.024 14.1073C152.266 16.6937 152.145 19.2999 151.581 21.8568V21.8564ZM165.977 17.2211C165.315 17.9735 164.659 18.1936 163.625 18.7161C163.356 18.8524 163.08 18.9781 162.712 19.1525C162.754 18.3786 162.776 17.7153 162.829 17.055C162.923 15.8698 163.03 14.6863 163.142 13.5034C163.198 12.9094 163.246 12.868 163.825 12.7546C163.952 12.7298 164.08 12.7134 164.209 12.6969C165.472 12.5345 166.193 13.3522 166.492 14.5986C166.718 15.5435 166.665 16.4388 165.977 17.2211Z" fill="#000217"/>
<path d="M125.991 14.7658C125.108 17.4328 124.781 25.1919 125.495 26.7851C126.098 26.6541 126.585 26.2949 126.995 25.8736C127.752 25.094 128.541 24.3214 129.164 23.4384C130.959 20.8953 132.678 18.1426 134.428 15.5673C134.822 14.9878 135.208 14.4031 135.618 13.835C136.332 12.8451 137.103 11.9033 138.039 11.0375C137.065 11.33 136.09 11.6177 135.118 11.9174C134.672 12.0548 134.243 12.2742 133.789 12.348C133.398 12.4114 132.963 12.3868 132.582 12.2799C132.192 12.1703 132.036 11.7919 132.086 11.4098C132.135 11.0318 132.395 10.801 132.807 10.7038C133.307 10.5866 133.814 10.4768 134.29 10.2941C137.09 9.2216 139.994 8.56659 142.943 8.08761C143.531 7.99208 144.123 7.91396 144.714 7.83535C144.894 7.81153 145.078 7.79202 145.257 7.80797C145.821 7.85846 146.216 8.24385 146.233 8.73881C146.25 9.2073 145.938 9.60342 145.389 9.69844C144.469 9.8573 143.54 9.95497 142.62 10.1083C141.75 10.2534 140.887 10.4339 140.023 10.6069C139.878 10.6357 139.741 10.7053 139.498 10.7936C140.516 11.1149 140.849 11.8726 140.977 12.7189C141.165 13.9743 141.298 15.2393 141.423 16.5034C141.735 19.6527 142.03 22.8036 142.327 25.9546C142.353 26.2378 142.373 26.5277 142.343 26.8087C142.254 27.6419 141.576 28.0857 140.783 27.853C139.927 27.6024 139.489 26.3123 140.064 25.6326C140.259 25.4029 140.299 25.2165 140.273 24.9416C139.933 21.3774 139.607 17.8118 139.271 14.2473C139.233 13.8433 139.151 13.4437 139.063 12.8735C138.73 13.1819 138.481 13.3601 138.299 13.5911C137.658 14.4059 137.004 15.2146 136.42 16.0701C134.899 18.2993 133.436 20.568 131.904 22.7893C131.14 23.8983 130.304 25.1178 129.447 26.158C128.702 27.0633 127.817 27.833 126.762 28.3733C126.442 28.5372 126.1 28.6869 125.75 28.7596C124.82 28.9534 124.08 28.5942 123.738 27.7097C123.498 27.0884 123.3 26.4174 123.26 25.7579C123.03 21.9864 123.221 18.2348 124.022 14.5329C124.185 13.7774 124.466 13.0438 124.737 12.3163C124.861 11.9822 125.062 11.6647 125.282 11.3807C125.648 10.908 126.151 10.7365 126.738 10.887C127.314 11.0347 127.637 11.4703 127.666 12.0112C127.702 12.6755 127.667 13.3632 127.527 14.0115C127.381 14.6898 126.949 14.8485 125.991 14.7654V14.7658H125.991Z" fill="#000217"/>
<path d="M119.459 28.0352C119.715 28.1336 119.887 28.1857 120.046 28.2647C120.377 28.4285 120.564 28.7031 120.558 29.0729C120.553 29.4768 120.328 29.7436 119.965 29.9098C119.139 30.2883 118.123 29.9066 117.808 28.9759C117.553 28.223 117.393 27.4161 117.337 26.6227C117.222 24.9928 117.18 23.3565 117.151 21.722C117.113 19.542 117.117 17.3609 117.098 15.1803C117.095 14.9095 117.07 14.4812 116.975 14.1356C116.857 14.3888 116.656 14.8566 116.549 15.1141C115.35 17.9868 114.18 20.872 112.947 23.7299C112.321 25.1807 111.614 26.5991 110.881 27.9995C110.572 28.5896 110.126 29.1154 109.697 29.633C109.352 30.049 108.893 30.3259 108.323 30.1245C107.733 29.9163 107.515 29.4338 107.5 28.8388C107.498 28.735 107.495 28.6312 107.496 28.5272C107.559 24.063 107.608 18.8984 107.696 14.4346C107.722 13.1126 107.853 11.7926 107.947 10.4726C107.992 9.84852 108.335 9.47697 108.828 9.47886C109.291 9.48054 109.608 9.80708 109.705 10.399C109.739 10.6029 109.769 10.8117 109.764 11.0173C109.653 15.7386 109.537 21.1595 109.424 25.8805C109.421 26.0251 109.441 26.1702 109.45 26.3152C109.502 26.3274 109.555 26.3393 109.608 26.3514C109.825 25.9258 110.069 25.5111 110.257 25.0726C111.216 22.8311 112.155 20.5804 113.113 18.3384C114.021 16.2159 114.935 14.0963 115.868 11.9853C116.034 11.6116 116.264 11.2453 116.54 10.9459C117.337 10.0834 118.43 10.3266 118.76 11.4548C118.918 11.9943 118.974 12.5779 118.987 13.1434C119.028 15.0379 119.018 16.9334 119.05 18.8281C119.088 21.1638 119.131 23.4996 119.209 25.8343C119.234 26.5782 119.375 27.3185 119.459 28.0346V28.0352H119.459Z" fill="#000217"/>
<path d="M196.723 25.9363C196.587 24.4657 196.431 22.9966 196.313 21.5246C196.099 18.8641 195.907 16.2021 195.706 13.5409C195.612 12.3021 195.43 11.0718 195.633 9.82043C195.765 9.00394 195.452 8.61735 194.64 8.42299C193.822 8.22696 193.047 8.37701 192.304 8.75908C190.767 9.54914 189.415 10.585 188.221 11.8317C186.403 13.73 185.603 16.0304 185.594 18.62C185.591 19.9071 186.287 20.5914 187.555 20.6488C187.837 20.6612 188.124 20.6309 188.407 20.5997C188.75 20.5616 189.091 20.5026 189.486 20.4449C189.419 20.5857 189.397 20.6626 189.352 20.721C187.597 23.0018 185.843 25.2837 184.079 27.5575C183.729 28.0087 183.33 28.4185 182.973 28.8634C182.582 29.3495 182.107 30.1204 182.662 30.5145C183.391 30.936 184.268 30.3683 184.813 29.6736C186.67 27.3063 188.525 24.9392 190.385 22.5757C191.33 21.3743 192.281 20.1751 193.246 18.9882C193.45 18.7369 193.967 18.2274 194.29 17.9356C194.309 18.2562 194.434 22.2435 194.558 24.0539C194.566 24.1792 194.558 24.3202 194.502 24.4326C193.859 25.7307 194.485 26.3791 195.046 27.0815C195.312 27.414 195.685 27.5837 196.054 27.4726C196.469 27.3473 196.715 27.0627 196.754 26.6334C196.774 26.4034 196.745 26.1675 196.723 25.9358L196.723 25.9363ZM193.675 15.9501C192.157 17.4254 190.298 18.2162 188.269 18.6728C188.169 18.6955 188.062 18.6907 187.959 18.69C187.857 18.6883 187.755 18.6759 187.598 18.6643C187.579 18.462 187.533 18.2622 187.547 18.0669C187.658 16.5387 188.055 15.1015 189.017 13.8774C190.17 12.4107 191.616 11.2838 193.232 10.3685C193.318 10.3194 193.454 10.2456 193.676 10.1701C193.725 10.6374 193.747 11.0761 193.768 11.4613C193.836 12.6768 193.886 13.8932 193.956 15.1086C193.975 15.4352 193.926 15.7067 193.675 15.9501Z" fill="#000217"/>
<path d="M178.348 16.1766C178.176 16.5184 177.989 16.8538 177.834 17.2034C176.66 19.8592 175.491 22.5171 174.323 25.1757C173.98 25.9591 173.669 26.7585 173.302 27.5305C172.938 28.2947 172.433 28.5947 171.864 28.4653C171.251 28.3258 170.911 27.8195 170.901 26.9597C170.862 23.6613 171.035 20.3708 171.299 17.0843C171.425 15.5078 171.547 13.931 171.671 12.3542C171.681 12.2251 171.68 12.0929 171.71 11.9679C171.808 11.5494 172.135 11.2586 172.516 11.2364C172.885 11.215 173.28 11.4744 173.38 11.8866C173.464 12.2346 173.507 12.6074 173.485 12.9642C173.335 15.4763 173.151 17.9866 173.008 20.4992C172.96 21.3383 173 22.1827 173 23.1588C173.127 22.8856 173.215 22.7138 173.288 22.5359C174.86 18.718 176.728 15.0409 178.597 11.3645C178.796 10.9725 179.035 10.5985 179.278 10.2313C179.529 9.85206 179.889 9.67725 180.35 9.77394C180.761 9.86041 181.089 10.2313 181.145 10.7252C181.173 10.9785 181.151 11.2452 181.105 11.4977C180.275 16.1383 180 20.8198 180.073 25.5256C180.085 26.3014 180.195 27.0755 180.253 27.8508C180.272 28.109 180.298 28.3712 180.273 28.6272C180.232 29.0573 179.943 29.3573 179.549 29.4333C179.106 29.5187 178.714 29.3414 178.522 28.9194C178.428 28.7131 178.398 28.4742 178.362 28.246C178.018 26.0796 178.083 23.8988 178.166 21.7206C178.236 19.8823 178.355 18.0456 178.452 16.2083C178.417 16.1976 178.382 16.1868 178.347 16.1764L178.348 16.1766Z" fill="#000217"/>
<path d="M5.12261 9.4036C4.85608 9.90426 4.64577 10.2561 4.47547 10.626C3.56728 12.5998 3.09804 14.6973 2.74029 16.8269C2.21747 19.9395 2.11839 23.0764 2.25939 26.2185C2.30798 27.298 2.47996 28.3906 2.75196 29.4365C3.11115 30.8184 4.15082 31.1838 5.4051 30.4678C6.52887 29.826 7.41943 28.9137 8.18281 27.8879C10.1159 25.2896 11.6744 22.4864 12.6914 19.4002C13.4224 17.1818 13.9362 14.9085 14.414 12.5295C14.1517 12.5955 13.9459 12.682 13.7368 12.6915C13.4357 12.7053 13.103 12.7368 12.8353 12.6305C12.1927 12.3754 12.089 11.6247 12.6288 11.1857C12.8615 10.9966 13.1728 10.8963 13.4591 10.7824C13.8426 10.63 14.2358 10.5021 14.6262 10.367C14.9623 10.2508 15.171 10.0274 15.3413 9.70682C15.7905 8.86102 16.2209 8.72691 17.0386 9.18375C17.2994 9.32951 17.509 9.29237 17.7703 9.25901C18.6175 9.15088 19.4683 9.06038 20.3205 9.00583C20.8769 8.97034 21.3445 9.18732 21.5965 9.72085C21.8644 10.288 21.7892 10.8394 21.4281 11.3391C20.8883 12.0858 20.0837 12.0167 19.6567 11.2002C19.6207 11.1316 19.5836 11.0637 19.5073 10.9218C18.9224 11.0264 18.3159 11.1364 17.7088 11.2428C17.4451 11.2891 17.301 11.4401 17.2591 11.7047C16.7765 14.753 16.2916 17.801 15.81 20.8496C15.8026 20.8958 15.8305 20.9475 15.8598 21.073C16.0429 21.023 16.2492 21.0115 16.4043 20.9167C17.1996 20.4311 17.9842 19.9278 18.7673 19.4226C19.0286 19.2542 19.2623 19.0415 19.5297 18.8848C20.0726 18.5666 20.5653 18.6249 20.8607 19.0129C21.1594 19.4052 21.0882 19.8604 20.6516 20.3401C20.5992 20.3978 20.5461 20.4556 20.4865 20.5052C19.1386 21.6258 17.7081 22.595 15.9558 22.9749C15.8307 23.0021 15.7107 23.0526 15.5606 23.1012C15.5101 23.5928 15.427 24.0806 15.4158 24.5698C15.3748 26.359 15.3224 28.1493 15.3503 29.938C15.3603 30.5737 15.5709 31.2103 15.7245 31.838C15.7847 32.084 15.9107 32.3273 16.0577 32.536C16.3595 32.9647 16.6627 32.9836 17.0078 32.5973C17.2839 32.2884 17.5185 31.9429 17.7798 31.6204C18.0084 31.3382 18.2268 31.043 18.4886 30.7943C18.9619 30.3445 19.5731 30.5016 19.7572 31.1333C19.8322 31.3906 19.8351 31.7069 19.7603 31.9643C19.4607 32.9923 18.7873 33.7908 18.0239 34.4998C17.6581 34.8399 17.1636 34.9526 16.6408 34.8845C15.4646 34.731 14.6114 34.1503 14.1289 33.0512C13.6423 31.9432 13.3588 30.7754 13.3695 29.5757C13.3877 27.5272 13.4967 25.4794 13.5694 23.4315C13.5758 23.2526 13.5951 23.0742 13.4798 22.832C13.365 23.0373 13.2414 23.2383 13.1364 23.4487C12.1967 25.3337 11.1439 27.1505 9.88465 28.8421C8.89975 30.165 7.76647 31.3323 6.32688 32.1708C5.71023 32.53 5.05712 32.7384 4.33136 32.7325C2.85772 32.7203 1.81018 32.0548 1.16875 30.7357C0.718813 29.8106 0.538984 28.8102 0.433705 27.8051C0.135021 24.955 0.203618 22.102 0.482056 19.254C0.696899 17.0562 1.01107 14.8692 1.66441 12.7558C2.02288 11.5959 2.48472 10.4611 2.99085 9.35667C3.23238 8.83004 3.62159 8.32795 4.05675 7.9421C5.0695 7.04367 6.53838 7.4905 6.90472 8.79384C7.09264 9.46218 7.17793 10.1634 7.26343 10.8553C7.32203 11.3296 7.0369 11.6914 6.61985 11.7885C6.2459 11.8755 5.8498 11.7047 5.68212 11.2731C5.4687 10.7234 5.33841 10.1415 5.12261 9.4036Z" fill="#000217"/>
<path d="M27.236 15.6431C26.5683 20.2658 25.7392 24.8587 24.7779 29.4287C24.6612 29.9836 24.6181 30.5554 24.5647 31.1217C24.5107 31.6956 24.2191 32.0618 23.7511 32.0927C23.2573 32.1251 22.84 31.7529 22.8133 31.1603C22.7914 30.6721 22.8279 30.172 22.9101 29.6893C23.3412 27.1584 23.8092 24.6336 24.237 22.102C24.7207 19.2378 25.1595 16.3658 25.649 13.5025C25.9245 11.89 26.299 10.2982 27.0159 8.81147C27.139 8.55591 27.2648 8.29081 27.4437 8.07501C28.0449 7.34877 28.9486 7.45406 29.3154 8.31627C29.5054 8.76335 29.6268 9.25831 29.6768 9.74228C29.8047 10.9794 29.9317 12.2216 29.9555 13.4637C30.0017 15.8768 29.9771 18.2912 29.9812 20.7052C29.9817 21.0151 29.9812 21.325 29.9812 21.7066C30.3507 21.5517 30.371 21.2443 30.4591 21.0108C31.2466 18.9246 32.0105 16.8293 32.8006 14.744C33.3058 13.4108 33.8251 12.082 34.3777 10.7679C34.5872 10.2704 34.878 9.79851 35.1889 9.35524C35.3927 9.06514 35.669 8.80074 35.966 8.60638C36.8138 8.05166 37.7312 8.37536 37.9664 9.36262C38.1391 10.0867 38.2048 10.8501 38.2148 11.5973C38.2759 16.1909 38.3046 20.785 38.3503 25.3792C38.3667 27.0648 38.4084 28.7502 38.4168 30.4359C38.4181 30.6827 38.3411 30.9522 38.2259 31.172C38.008 31.5872 37.6061 31.7521 37.18 31.6669C36.7408 31.5796 36.5072 31.2809 36.435 30.8689C36.3861 30.5908 36.3999 30.3002 36.3991 30.0155C36.3815 24.7982 36.3696 19.581 36.3467 14.3641C36.3426 13.467 36.3629 12.3773 36.2466 11.4539C36.1285 11.6961 34.3652 16.215 33.6418 18.1316C33.0193 19.7816 32.38 21.4255 31.7104 23.0566C31.5085 23.5487 31.2482 24.0456 30.9043 24.4452C30.1774 25.2908 28.815 25.0578 28.4023 24.022C28.2328 23.5973 28.1319 23.1181 28.1233 22.6612C28.0695 19.8333 28.05 17.0046 28.0217 14.1761C28.0119 13.2107 27.9733 13.1009 27.9443 12.1356C27.5775 13.6028 27.4472 14.1818 27.2362 15.6429L27.236 15.6431Z" fill="#000217"/>
<path d="M53.8936 24.6527C53.9958 24.3973 54.2707 23.7323 54.3666 23.4744C55.5606 20.2674 56.6981 17.0379 57.9689 13.8617C58.6023 12.279 59.4765 10.7922 60.2493 9.2659C60.3661 9.03556 60.5102 8.8155 60.6675 8.61041C61 8.17644 61.3928 8.03425 61.8163 8.16787C62.2972 8.3196 62.6154 8.75643 62.6224 9.28758C62.6241 9.41644 62.6151 9.54838 62.5886 9.67438C62.1302 11.8704 62.0575 14.1032 61.9961 16.3321C61.9026 19.7303 61.8591 23.1299 61.7988 26.5289C61.792 26.9126 61.808 27.2648 62.0637 27.6262C62.4586 28.1841 62.1691 29.0194 61.5822 29.2789C60.9521 29.5579 60.2436 29.2557 60.0163 28.5615C59.9052 28.2228 59.8509 27.8481 59.8571 27.491C59.9271 23.4696 60.0147 19.4483 60.0947 15.4268C60.1036 14.9728 60.1606 14.0649 60.1663 13.4451C60.0485 13.689 59.7438 14.506 59.6497 14.7587C58.5555 17.6986 57.4556 20.6366 56.3838 23.5847C55.7723 25.266 55.2108 26.9652 54.6232 28.655C54.5467 28.8751 54.465 29.0962 54.3553 29.3005C54.1317 29.7168 53.7933 29.9777 53.2986 29.9744C52.7818 29.9712 52.3652 29.7322 52.1819 29.2681C52.0146 28.8448 51.8913 28.3679 51.8997 27.9176C51.9346 26.1023 51.9803 24.2847 52.1111 22.4745C52.3074 19.758 52.5739 17.0465 52.8212 14.3338C52.8799 13.6885 52.994 13.0483 53.0578 12.403C53.1388 11.5796 53.1962 10.7536 53.2613 9.92853C53.2837 9.64437 53.2691 9.35378 53.3243 9.07654C53.4305 8.54585 53.7703 8.23647 54.1988 8.22669C54.6094 8.21717 55.1011 8.59897 55.2016 9.06154C55.2611 9.33497 55.2719 9.63008 55.2441 9.90972C54.9302 13.0847 54.5942 16.2573 54.2869 19.4328C54.1444 20.9043 54.0517 22.3808 53.9382 23.8552C53.9293 23.9726 53.9071 24.4114 53.8928 24.6517L53.8936 24.6527Z" fill="#000217"/>
<path d="M97.5257 17.4223C97.4378 14.6234 97.2262 11.8293 97.0559 9.03345C97.0124 8.32414 97.0394 7.69819 96.4158 7.2137C95.8619 6.78354 95.2821 6.63897 94.6568 6.94695C94.4257 7.05962 94.2073 7.20894 94.0056 7.36997C92.6564 8.45322 91.5452 9.73966 90.6742 11.2397C89.8973 12.5767 89.7076 14.0246 89.8351 15.5226C89.9471 16.8423 90.6269 17.5991 91.8998 17.9318C92.3759 18.0561 92.8627 18.1419 93.3433 18.246C94.1037 18.4115 94.2019 18.5134 94.114 19.3035C94.0659 19.7358 93.9726 20.1815 93.8023 20.5797C93.1195 22.1756 92.4297 23.7697 91.6838 25.3375C90.8829 27.0219 88.4349 31.4334 87.855 33.3096C87.788 33.5267 87.7361 33.7646 87.7394 33.9916C87.7456 34.4358 87.9927 34.7499 88.3754 34.8726C88.7898 35.0067 89.2023 34.8734 89.4643 34.488C89.594 34.2974 89.6892 34.079 89.7738 33.8627C90.0581 33.1385 89.9822 33.3377 90.2422 32.6055C90.9118 30.7194 91.733 29.2835 92.6816 27.5172C93.6383 25.7388 94.4541 23.8848 95.3304 22.0626C95.4051 21.9071 95.4688 21.7468 95.5372 21.5882C95.5802 21.6022 95.6235 21.6161 95.6665 21.6301C95.6748 21.7849 95.691 21.9395 95.6897 22.0936C95.6578 24.6079 95.9238 27.1229 95.6554 29.6387C95.5775 30.3664 95.9392 30.8424 96.5061 30.9133C97.1118 30.9895 97.5257 30.5989 97.6152 29.795C97.6774 29.2294 97.6984 28.6556 97.6914 28.0855C97.6484 24.5307 97.6379 20.9744 97.526 17.4218V17.4223H97.5257ZM93.5144 16.3226C93.1933 16.2247 92.8557 16.1819 92.5308 16.0947C91.8728 15.9189 91.7841 15.7977 91.7468 15.1343C91.676 13.8791 91.9188 12.7065 92.67 11.6744C93.1847 10.9668 94.214 9.57698 95.3586 8.81647C95.4223 10.9356 95.5264 14.7687 95.5932 17.0014C94.8241 16.7488 94.1732 16.5239 93.5147 16.3226H93.5144Z" fill="#000217"/>
<path d="M67.7447 18.2781C67.8966 18.3708 68.0426 18.412 68.108 18.508C68.4889 19.0658 69.0339 19.036 69.5683 18.8867C70.2141 18.7059 70.8626 18.5004 71.4659 18.2131C71.9817 17.9675 72.4501 17.7306 73.0546 18.1962C73.0546 17.7839 73.054 17.5026 73.0546 17.2213C73.0608 14.6258 73.0665 12.0303 73.0751 9.4348C73.0759 9.20184 73.0705 8.96342 73.1149 8.73692C73.2376 8.11215 73.7717 7.72914 74.2829 7.87444C74.8319 8.03044 75.2736 8.69975 75.0541 9.20946C74.8444 9.69609 74.8792 10.1686 74.8892 10.6562C74.963 14.2373 75.0184 17.8189 75.123 21.3991C75.189 23.6554 75.3274 25.9098 75.4415 28.1644C75.4518 28.3685 75.5507 28.568 75.5585 28.7715C75.5745 29.1811 75.6069 29.6003 75.5393 29.9996C75.4561 30.4924 75.0519 30.7808 74.6024 30.7738C74.1769 30.767 73.8171 30.5113 73.7031 30.0493C73.6106 29.6749 73.5752 29.2819 73.5552 28.8951C73.403 25.9403 73.2606 22.9849 73.1149 20.0297C73.1089 19.9018 73.0992 19.7742 73.0843 19.5367C71.3848 20.513 69.6202 20.968 67.6604 20.6798C67.6003 21.7532 67.5412 22.7305 67.492 23.7083C67.4449 24.6412 67.4163 25.5754 67.3619 26.5079C67.346 26.784 67.3665 27.0026 67.6155 27.1867C67.9423 27.4289 68.0137 27.8065 67.9293 28.1725C67.7496 28.9532 67.5344 29.726 67.3114 30.4956C67.2633 30.6613 67.1435 30.8214 67.0192 30.9473C66.7069 31.2636 66.3315 31.4223 65.8898 31.2447C65.4875 31.0833 65.2767 30.763 65.2789 30.3342C65.2824 29.6598 65.2945 28.9843 65.3345 28.3112C65.6641 22.7391 65.839 17.162 65.8895 11.5808C65.8965 10.7763 65.899 9.97119 65.9228 9.16707C65.9303 8.91246 65.9514 8.6383 66.0509 8.41034C66.3177 7.79988 67.2043 7.69246 67.4903 8.27791C67.8012 8.91387 68.3521 9.5765 67.8023 10.3732C67.7369 10.4678 67.7469 10.6243 67.7469 10.7522C67.7439 13.2431 67.7447 15.7341 67.7447 18.2786V18.2781Z" fill="#000217"/>
<path d="M86.6505 30.8481C86.5737 29.9444 86.4491 29.0456 86.3837 28.1409C86.2369 26.1228 86.1188 24.1025 85.9769 22.0827C85.9488 21.6823 85.9623 21.3595 86.3075 21.0406C86.7462 20.6354 86.7121 20.0514 86.2437 19.6834C85.9242 19.4331 85.8815 19.1625 85.8736 18.8171C85.8306 16.8707 85.7966 14.924 85.722 12.979C85.6682 11.5792 85.5679 10.1817 85.4654 8.785C85.4273 8.25934 85.19 7.81678 84.638 7.6791C84.063 7.53524 83.6292 7.80821 83.3064 8.26935C83.1734 8.45916 83.0458 8.66044 82.9572 8.87432C82.6393 9.64032 82.2978 10.3994 82.0394 11.1857C81.0744 14.1244 80.4881 17.1574 79.8434 20.1764C79.7525 20.6026 79.6498 21.0265 79.5519 21.4534C78.9197 21.5715 78.1528 21.4441 78.0766 22.3227C78.0144 23.0342 78.6226 23.1743 79.2021 23.375C78.821 24.7048 78.9156 26.1163 78.2306 27.3544C78.1701 27.464 78.0436 27.6897 78.0303 27.8165C77.9665 28.4363 77.9584 28.991 77.9649 29.5871C77.9673 29.8171 77.9579 30.0623 78.0257 30.2785C78.1344 30.6224 78.3842 30.843 78.7653 30.8751C79.14 30.907 79.4287 30.7592 79.6074 30.4343C79.6931 30.2769 79.7452 30.0974 79.7863 29.9225C80.0188 28.9378 80.2615 27.9557 80.4667 26.9657C80.7551 25.5721 81.0144 24.1722 81.2912 22.746C82.2011 22.5002 83.0712 22.2653 83.9919 22.0174C84.0309 22.2289 84.0528 22.3037 84.0571 22.3797C84.2252 24.8916 84.3898 27.4034 84.5588 29.9147C84.5953 30.4583 84.6196 31.0041 84.6885 31.5445C84.7623 32.1302 85.1484 32.4816 85.652 32.4825C86.131 32.4833 86.488 32.1746 86.5986 31.6207C86.6492 31.3687 86.6724 31.1019 86.6508 30.8478L86.6505 30.8481ZM81.7177 20.6993C82.33 17.7279 82.9028 14.9028 83.7603 12.1341C83.823 14.7573 83.8868 17.3768 83.9514 20.039C83.2026 20.2608 82.5203 20.462 81.718 20.6993H81.7177Z" fill="#000217"/>
<path d="M46.2327 10.5173C45.6243 10.6 45.0909 10.6722 44.5422 10.7467C43.9023 12.7515 44.068 14.7789 43.8366 16.8342C44.7436 16.5846 45.5375 16.3603 46.3355 16.1504C46.559 16.0916 46.7934 16.0527 47.0242 16.0461C47.4338 16.0344 47.7136 16.2509 47.8584 16.6261C47.9895 16.9662 47.8887 17.3749 47.537 17.5821C47.187 17.7884 46.7842 17.9173 46.3909 18.0356C45.721 18.2369 45.0393 18.3977 44.3659 18.588C44.1708 18.6433 43.9875 18.7404 43.7715 18.8295C43.7572 19.022 43.7296 19.1992 43.7331 19.3757C43.7745 21.3988 43.785 23.4236 43.8826 25.4441C43.9221 26.2654 44.114 27.0869 44.3105 27.8903C44.4695 28.5399 44.7525 28.7018 45.335 28.4028C45.9941 28.0646 46.5823 27.5843 47.1851 27.1429C47.4338 26.9607 47.6222 26.696 47.8695 26.5112C48.2274 26.2437 48.6407 26.2633 48.9484 26.5143C49.2611 26.7699 49.3503 27.1484 49.1957 27.5689C49.1779 27.6175 49.1635 27.6702 49.1346 27.7119C48.1144 29.1719 46.8285 30.238 44.9847 30.4288C43.8915 30.5421 43.076 30.0458 42.707 29.0456C42.3783 28.1547 42.1385 27.207 42.026 26.2645C41.6403 23.0313 41.7525 19.7849 41.9436 16.5441C42.0309 15.0686 42.2045 13.598 42.3494 12.126C42.3753 11.8612 42.3672 11.6578 42.1782 11.4162C41.6184 10.7 41.7587 10.07 42.5724 9.6258C43.9772 8.85883 45.5037 8.61114 47.0861 8.68807C47.6898 8.71737 48.1082 9.05605 48.3012 9.62651C48.4918 10.1893 48.3604 10.7098 47.9685 11.1471C47.42 11.7592 46.7031 11.6394 46.3622 10.8918C46.3214 10.8017 46.2968 10.7043 46.233 10.5178L46.2327 10.5173Z" fill="#000217"/>
<path d="M64.6955 5.8537C64.4871 5.62193 64.2789 5.38994 64.0684 5.15509C64.4614 4.85903 64.8063 4.59942 65.2505 4.26547C64.6782 4.33432 64.2546 4.38503 63.7875 4.44126V3.13862C63.4437 3.69788 63.1788 4.12898 62.9122 4.56249C62.0867 4.36408 61.2389 4.16972 60.3172 3.94819C60.8359 3.55283 61.9493 2.52362 62.2935 1.83574C61.1062 2.17706 60.2171 2.93402 59.0732 3.34228C59.0115 2.82659 58.9753 2.39476 58.9047 1.96841C58.8393 1.57207 58.7342 1.00257 58.4793 0.5C58.3498 0.996856 58.2354 1.62185 58.123 2.03487C58.0043 2.47027 57.8781 2.90353 57.7532 3.34441C56.843 3.23412 55.8912 2.80944 55.0368 2.74537L55.0386 2.73823L55.0008 2.74323C54.9086 2.73728 54.8173 2.73442 54.7275 2.73823C54.714 2.78944 54.7002 2.84065 54.6867 2.89186C55.4501 3.297 56.4248 3.77887 57.2855 4.2357C56.3559 5.04147 55.2019 5.73173 54.4415 6.59872C54.7962 6.59372 56.6295 6.039 57.3082 5.78509C57.4645 5.72673 57.598 5.65861 57.7886 5.57859C57.9692 6.29767 57.5502 7.11227 57.9424 7.9128C58.1551 7.64318 58.3236 7.34759 58.4549 7.14466C58.7507 6.68828 59.0137 6.20954 59.3235 5.76295C59.4467 5.58503 59.6519 5.35063 59.8292 5.34206C60.7183 5.29895 61.6106 5.3223 62.5616 5.3223C62.4246 5.74152 62.3208 6.05852 62.217 6.37555L62.1099 6.69328L62.36 6.46154H62.3605C62.6916 6.18643 63.0228 5.91133 63.355 5.63552C63.7797 5.76747 64.1876 5.89395 64.5952 6.02043L64.938 6.12664L64.6952 5.8537H64.6955Z" fill="#000217"/>
</svg>
