<svg width="20" height="20" viewBox="0 0 20 20" fill="none" xmlns="http://www.w3.org/2000/svg">
<path fill-rule="evenodd" clip-rule="evenodd" d="M15.6646 5.65557C16.1091 6.0868 16.1111 6.78792 15.6691 7.22159L8.41387 14.3402C8.20084 14.5492 7.91118 14.6668 7.60906 14.6668C7.30694 14.6668 7.01728 14.5492 6.80425 14.3402L4.33114 11.9137C3.88916 11.48 3.89119 10.7789 4.33567 10.3477C4.78015 9.91644 5.49877 9.91842 5.94076 10.3521L7.60906 11.989L14.0595 5.65999C14.5015 5.22632 15.2201 5.22435 15.6646 5.65557Z" fill="#FF9FCD"/>
<path fill-rule="evenodd" clip-rule="evenodd" d="M15.6691 7.22159C16.1111 6.78792 16.1091 6.0868 15.6646 5.65557C15.2201 5.22435 14.5015 5.22632 14.0595 5.65999L7.60906 11.989L5.94076 10.3521C5.49877 9.91842 4.78015 9.91644 4.33567 10.3477C3.89119 10.7789 3.88916 11.48 4.33114 11.9137L6.80425 14.3402C7.01728 14.5492 7.30694 14.6668 7.60906 14.6668C7.91118 14.6668 8.20084 14.5492 8.41387 14.3402L15.6691 7.22159Z" fill="#FF9FCD"/>
</svg>
